<svg id="Layer_1" data-name="Layer 1" xmlns="http://www.w3.org/2000/svg" xmlns:xlink="http://www.w3.org/1999/xlink" viewBox="0 0 166 49"><defs><style>.cls-1{fill:#fff;}.cls-2{mask:url(#mask);}</style><mask id="mask" x="72.01" y="0.03" width="93.96" height="48.29" maskUnits="userSpaceOnUse"><g id="b"><path id="a" class="cls-1" d="M72,0h94V48.32H72Z"/></g></mask></defs><title>Artboard 1</title><path class="cls-1" d="M0,14.13v.12L28,27.38,56,14.21v0L28,1Zm10.08.06L28,5.8l17.88,8.4L28,22.59l-17.87-8.4ZM28,32.48,0,19.55v4.78l28,13,28-13V19.5Zm0,9.7L0,29.25V34L28,47,56,34V29.21Z"/><g class="cls-2"><path class="cls-1" d="M159.56,24.15a8.1,8.1,0,0,0-2.16-5.57,7.26,7.26,0,0,0-2.34-1.67,7.06,7.06,0,0,0-5.7,0A7.26,7.26,0,0,0,147,18.58a8.27,8.27,0,0,0,0,11.15,7.26,7.26,0,0,0,2.34,1.67,7.05,7.05,0,0,0,5.7,0,7.26,7.26,0,0,0,2.34-1.67,8.1,8.1,0,0,0,2.16-5.57Zm6.42,0a13.4,13.4,0,0,1-1.07,5.37A13.1,13.1,0,0,1,162,33.81a14,14,0,0,1-9.76,3.9,13.66,13.66,0,0,1-5.35-1,13.86,13.86,0,0,1-4.37-2.88,13.35,13.35,0,0,1-4-9.63,12.94,12.94,0,0,1,1.09-5.28,13.92,13.92,0,0,1,3-4.32,13.71,13.71,0,0,1,9.67-3.95,13.84,13.84,0,0,1,5.37,1A14,14,0,0,1,162,14.5a13,13,0,0,1,2.94,4.3A13.45,13.45,0,0,1,166,24.15ZM136.26,36.9a8.6,8.6,0,0,1-1.72.58,8.75,8.75,0,0,1-2,.22,9.84,9.84,0,0,1-2.74-.38,6,6,0,0,1-2.3-1.23A5.94,5.94,0,0,1,126,33.89a8.37,8.37,0,0,1-.58-3.28V0h6.55V29.5a3,3,0,0,0,.65,2.21,2.18,2.18,0,0,0,1.54.6,3.85,3.85,0,0,0,2.14-.67ZM122.49,11.22,110.91,41.85a10.44,10.44,0,0,1-3.39,5,8.29,8.29,0,0,1-5,1.51,8.05,8.05,0,0,1-1-.07,7.35,7.35,0,0,1-1-.2l-2.14-6a8.49,8.49,0,0,0,1.56.56,6.23,6.23,0,0,0,1.51.2,5.6,5.6,0,0,0,2.76-.69,4.48,4.48,0,0,0,1.92-2.56L107,37,97.1,11.22h7L110,27.81l5.57-16.59h6.91Zm-27-3.88H78.79v8.29H95.31v5.62H78.78V37H72V1.41H95.54V7.34Z"/></g></svg>